<svg width="48" height="48" viewBox="0 0 48 48" fill="none" xmlns="http://www.w3.org/2000/svg">
  <defs>
    <linearGradient id="sg" x1="24" y1="0" x2="24" y2="48" gradientUnits="userSpaceOnUse">
      <stop offset="0%" stop-color="#f0c040"/>
      <stop offset="50%" stop-color="#d4a520"/>
      <stop offset="100%" stop-color="#8b6914"/>
    </linearGradient>
    <linearGradient id="ig" x1="24" y1="8" x2="24" y2="40" gradientUnits="userSpaceOnUse">
      <stop offset="0%" stop-color="#1a1f3a"/>
      <stop offset="100%" stop-color="#0d1020"/>
    </linearGradient>
  </defs>
  <path d="M24 2L6 10v12c0 11.1 7.7 21.4 18 24 10.3-2.6 18-12.9 18-24V10L24 2z" fill="url(#sg)"/>
  <path d="M24 6L10 12.5v9.5c0 9 6 17.5 14 19.8 8-2.3 14-10.8 14-19.8v-9.5L24 6z" fill="url(#ig)" stroke="#d4a520" stroke-width="0.3" stroke-opacity="0.4"/>
  <circle cx="24" cy="20" r="5" fill="none" stroke="#d4a520" stroke-width="1.2" stroke-opacity="0.8"/>
  <circle cx="24" cy="20" r="2" fill="#d4a520"/>
  <line x1="24" y1="15" x2="24" y2="10" stroke="#d4a520" stroke-width="0.8" stroke-opacity="0.6"/>
  <line x1="24" y1="25" x2="24" y2="30" stroke="#d4a520" stroke-width="0.8" stroke-opacity="0.6"/>
  <line x1="19" y1="20" x2="14" y2="20" stroke="#d4a520" stroke-width="0.8" stroke-opacity="0.6"/>
  <line x1="29" y1="20" x2="34" y2="20" stroke="#d4a520" stroke-width="0.8" stroke-opacity="0.6"/>
</svg>
